<svg xmlns="http://www.w3.org/2000/svg" xmlns:xlink="http://www.w3.org/1999/xlink" version="1.1" x="0px" y="0px" viewBox="0 0 100 125" enable-background="new 0 0 100 100" xml:space="preserve"><g><path fill-rule="evenodd" clip-rule="evenodd" d="M77.399,60.775c-3.478,1.961-7.489,3.079-11.756,3.079   c-1.477,0-2.921-0.133-4.324-0.39v0.121h-1.488v-0.442c-0.345-0.086-0.687-0.179-1.025-0.279v0.722h-1.49v-1.22   c-0.347-0.129-0.688-0.264-1.025-0.407v1.627h-1.489v-2.32c-0.347-0.176-0.689-0.361-1.024-0.553v2.873h-1.492v-3.798   c-0.348-0.233-0.689-0.476-1.023-0.727v4.524h-1.49v-5.738c-0.352-0.309-0.693-0.63-1.025-0.96v6.698h-1.488v-7.282h0.918   c-2.266-2.399-4.043-5.267-5.17-8.437c-2.545,0.04-5.09,0.079-7.635,0.118c-0.932,0.015-1.863,0.028-2.795,0.041   c-2.733,0.041-5.469,0.083-8.201,0.121c-1.591,0.022-2.057-0.609-1.523-2.102c1.092-3.057,2.215-4.341,3.34-7.386   c0.047-0.13,0.101-0.256,0.158-0.384c0.145-0.317,0.31-0.627,0.469-0.938c0.234-0.458,0.498-0.847,0.816-1.165   c0.005-0.006,0.011-0.012,0.015-0.018c0.011-0.009,0.021-0.018,0.031-0.028c0.536-0.519,1.222-0.841,2.165-0.946   c2.197-0.247,4.395-0.471,6.593-0.646c1.946-0.153,3.896-0.267,5.851-0.317c0.145-0.605,0.314-1.2,0.504-1.786   c-4.744,0.13-9.465,0.658-14.185,1.214c-1.569,0.184-2.564,0.917-3.266,2.225c-0.23,0.43-0.499,0.847-0.671,1.3   c-1.354,3.583-2.709,5.405-4.016,9.007c-0.227,0.621-0.51,0.803-1.088,0.615c-0.023-0.078-0.049-0.124-0.05-0.168   c-0.007-0.539-0.012-1.076-0.017-1.613c-0.008-1.03-0.324-1.368-1.352-1.38c-1.223-0.015-2.445-0.007-3.667-0.003   c-1.116,0.003-1.757,0.48-1.979,1.462c-0.315,1.409,0.042,2.455,1.031,2.899c0.786,0.352,1.591,0.659,2.416,0.998   c-2.821,2.041-3.433,3.255-3.433,6.757c0,4.745,0.003,9.487-0.002,14.232c-0.002,1.032,0.295,1.962,0.836,2.841   c0.178,0.289,0.296,0.666,0.3,1.004c0.028,1.931-0.003,3.864,0.02,5.796c0.019,1.398,1.069,2.461,2.458,2.492   c1.102,0.024,4.175,0.031,5.273-0.003c1.019-0.032,1.785-0.55,2.172-1.48c0.2-0.481,0.268-1.043,0.279-1.569   c0.037-1.459,0.014-2.92,0.014-4.413h42.078c0,1.598-0.011,3.156,0.002,4.715c0.015,1.702,1.062,2.746,2.741,2.756   c0.929,0.005,3.766,0.007,4.694,0c1.642-0.015,2.683-1.063,2.691-2.722c0.009-1.834-0.009-3.669,0.014-5.502   c0.002-0.268,0.094-0.58,0.251-0.793c0.729-0.979,1.063-2.066,1.061-3.282C77.396,66.801,77.4,63.789,77.399,60.775z    M44.632,56.304h1.49v7.282h-1.49V56.304z M42.007,56.304h1.488v7.282h-1.488V56.304z M39.382,56.304h1.49v7.282h-1.49V56.304z    M36.757,56.304h1.488v7.282h-1.488V56.304z M34.134,56.304h1.487v7.282h-1.487V56.304z M31.507,56.304h1.49v7.282h-1.49V56.304z    M28.884,56.304h1.488v7.282h-1.488V56.304z M21.302,71.194c-0.936-0.009-1.719-0.785-1.748-1.73   c-0.03-0.95,0.784-1.775,1.761-1.782c1.003-0.006,1.764,0.751,1.761,1.756C23.072,70.425,22.284,71.205,21.302,71.194z    M26.929,70.879c-0.291,0.203-0.644,0.322-1.027,0.317c-0.118-0.002-0.232-0.015-0.344-0.038c-0.611-0.132-1.114-0.591-1.313-1.185   c-0.055-0.162-0.087-0.333-0.093-0.51c-0.016-0.491,0.195-0.946,0.535-1.274c0.32-0.309,0.753-0.505,1.227-0.507   c1.004-0.007,1.765,0.751,1.762,1.755C27.673,70.039,27.378,70.562,26.929,70.879z M26.929,61.878   c-1.54-0.013-3.08-0.004-4.619-0.004c-1.491,0-2.982-0.016-4.473,0.007c-0.641,0.009-0.946-0.147-0.928-0.692   c0.041-1.271,0.002-2.545,0.063-3.814c0.039-0.82,0.467-1.086,1.49-1.068c2.395,0.042,4.787,0.085,7.18,0.136   c0.338,0.008,0.688,0.037,1.012,0.107c0.662,0.145,1.021,0.488,1.016,1.054c-0.009,1.234-0.018,2.469,0.006,3.703   C27.683,61.738,27.45,61.882,26.929,61.878z M61.317,70.724H28.882v-0.293h32.436V70.724z M61.317,70.154H28.882v-0.293h32.436   V70.154z M61.319,69.586H28.882v-0.293h32.438V69.586z M61.319,69.017H28.884v-0.293h32.436V69.017z M64.176,71.194   c-0.967-0.002-1.749-0.792-1.747-1.771c0-0.37,0.106-0.708,0.294-0.986c0.312-0.463,0.844-0.757,1.466-0.755   c0.265,0.001,0.512,0.058,0.734,0.156c0.608,0.273,1.021,0.878,1.019,1.601C65.938,70.405,65.141,71.197,64.176,71.194z    M68.835,71.196c-0.969-0.003-1.747-0.794-1.747-1.772c0-0.988,0.765-1.745,1.76-1.741c0.99,0.002,1.757,0.771,1.753,1.756   C70.599,70.405,69.8,71.2,68.835,71.196z"/><path fill-rule="evenodd" clip-rule="evenodd" d="M65.644,17.872c-9.502,0-17.613,6.065-20.668,14.525   c-0.212,0.586-0.398,1.182-0.561,1.79c-0.48,1.802-0.736,3.697-0.736,5.649c0,2.825,0.536,5.526,1.512,8.01   c1.287,3.274,3.338,6.167,5.934,8.458c0.045,0.04,0.09,0.079,0.137,0.119c0.332,0.289,0.675,0.569,1.023,0.839   c0.482,0.368,0.979,0.719,1.492,1.048c0.335,0.218,0.677,0.425,1.024,0.624c0.485,0.276,0.981,0.535,1.489,0.773   c0.337,0.16,0.679,0.312,1.025,0.452c0.486,0.203,0.985,0.387,1.49,0.551c0.336,0.111,0.68,0.215,1.025,0.31   c0.489,0.135,0.985,0.252,1.488,0.353c0.597,0.12,1.2,0.215,1.813,0.285c0.824,0.094,1.662,0.143,2.512,0.143   c2.874,0,5.619-0.555,8.138-1.563c1.27-0.507,2.478-1.13,3.617-1.854c6.132-3.901,10.209-10.756,10.209-18.547   C87.607,27.726,77.755,17.872,65.644,17.872z M78.245,43.781h-8.656v8.655h-7.891v-8.655h-8.657v-7.89h8.657v-8.657h7.891v8.657   h8.656V43.781z"/></g></svg>