<svg xmlns="http://www.w3.org/2000/svg" xmlns:xlink="http://www.w3.org/1999/xlink" version="1.1" width="18" height="9" enable-background="new 0 0 470 190" xml:space="preserve" style=""><rect id="backgroundrect" width="100%" height="100%" x="0" y="0" fill="none" stroke="none" class="" style=""/>


























<g class="currentLayer" style=""><title>Layer 1</title><g id="svg_38" class="selected" stroke-width="1" stroke-dasharray="5,2,2,2,2,2" opacity="1" fill="#eb1a1a" fill-opacity="1">
	<g id="svg_39" stroke-width="1" stroke-dasharray="5,2,2,2,2,2" opacity="1" fill="#eb1a1a" fill-opacity="1">
		<path fill="#eb1a1a" d="M13.762771925771903,8.66338682985251 c-0.5807422017040241,0 -1.14284329569903,-0.27099766619952326 -1.5411177315590123,-0.7419701841773181 c-0.17709052323567168,-0.2118781167650737 -0.31725731389386636,-0.4539111714967123 -0.4144061636850943,-0.7221314091993145 c-0.04373490654808096,-0.12101652736581942 -0.07779077640109486,-0.2436201567298788 -0.10216760955904143,-0.3693979900904191 h-0.4724803838554969 H6.939409538590182 h-0.4721219010149392 c-0.024376833157946774,0.12617460886010015 -0.05950815153263472,0.25036534022239976 -0.10324305808071554,0.370191541089539 c-0.09643188411011286,0.2666331357043627 -0.23659867476830676,0.5106500679338015 -0.4144061636850943,0.7213378582001942 c-0.39755747017886656,0.4713692934773555 -0.9596585641738729,0.7419701841773181 -1.5411177315590123,0.7419701841773181 c-0.5814591673851406,0 -1.14284329569903,-0.27099766619952326 -1.540042283037338,-0.7419701841773181 c-0.17816597175734591,-0.21068779026639367 -0.31833276241553976,-0.45470472249583255 -0.4144061636850943,-0.7221314091993145 c-0.04373490654808096,-0.11982620086713942 -0.07886622492276889,-0.24282660573075882 -0.10324305808071554,-0.3693979900904191 h-0.4724803838554969 h-1.27261408398104 c-0.19071287117687746,0 -0.345577458297951,-0.17180379130950738 -0.345577458297951,-0.38169803057678026 v-1.0296324213583619 c0,-0.3602721536005372 0.26527730201294986,-0.6538860232749838 0.5914966869207655,-0.6538860232749838 h0.134431065209265 v-1.8362770119639702 c0,-0.42494656002882786 0.31295551980716907,-0.7713315711447623 0.6979660905665042,-0.7713315711447623 h1.6210594050034546 l2.4993423643706505,-1.608924650716054 c0.15773244984553791,-0.11903264986801915 0.35274711510911083,-0.18648448479322993 0.5552899200244038,-0.18648448479322993 h4.381377277300359 c0.2326553635221685,0 0.4602919672765232,0.09086158939925443 0.6398918703961027,0.2563169727158016 l2.311497355918238,1.7942188090106028 l3.0768582205096524,1.0855777667963313 c0.2950313777792677,0.08808416090233412 0.5072532193896263,0.3939980710631431 0.5072532193896263,0.7419701841773181 v1.2827751900776827 h0.03405586985301394 c0.18569411140906494,0 0.3366153872840003,0.167439260814347 0.3366153872840003,0.3725721940868996 v0.4860499869610773 c0,0.2471911362259194 -0.18175080016292644,0.44835631450287156 -0.4043686441494695,0.44835631450287156 h-0.948904078957131 h-0.4721219010149392 c-0.025093798839062823,0.12776171085834043 -0.060225117213750894,0.2519524422206402 -0.10324305808071554,0.370191541089539 c-0.09643188411011286,0.2666331357043627 -0.23659867476830676,0.5106500679338015 -0.4144061636850943,0.7213378582001942 C14.905615221470928,8.392785939152548 14.343514127475926,8.66338682985251 13.762771925771903,8.66338682985251 L13.762771925771903,8.66338682985251 zM13.762771925771903,5.578854096272585 c-0.3746145683831522,0 -0.6786080171763692,0.3376559501256142 -0.6786080171763692,0.7522863471658798 c0,0.0785615489128926 0.01182993373841535,0.15910697532358517 0.03477283553413006,0.2396524017342782 c0.0483951834753355,0.15751987332534528 0.14554403326656445,0.297184849170488 0.27244695882411035,0.38883998956886223 c0.11148816341355045,0.08054542641069302 0.2394665374927709,0.12260362936405966 0.37138822281812983,0.12260362936405966 c0.1326386510064749,0 0.2613339907668113,-0.041661427453806785 0.37067125713701327,-0.12260362936405966 c0.12761989123866213,-0.0916551403983746 0.22476874102989114,-0.23132011624351673 0.2738808901863431,-0.3912206425662228 c0.022942901795714586,-0.07776799791377242 0.03477283553413006,-0.15751987332534528 0.03477283553413006,-0.23727174873691764 C14.442096908629377,5.916113270898641 14.137386494155056,5.578854096272585 13.762771925771903,5.578854096272585 L13.762771925771903,5.578854096272585 zM4.408520684250421,5.578854096272585 c-0.3742560855425938,0 -0.6786080171763692,0.3376559501256142 -0.6786080171763692,0.7522863471658798 c0,0.07935509991201263 0.01182993373841535,0.15910697532358517 0.03477283553413006,0.23806529973603832 c0.04803670063477749,0.15990052632270554 0.1451855504260062,0.29877195116872785 0.2720884759835531,0.3904270915671025 c0.11112968057299256,0.08054542641069302 0.2394665374927709,0.12260362936405966 0.37138822281812983,0.12260362936405966 c0.13299713384703324,0 0.2613339907668113,-0.041661427453806785 0.3724636713398043,-0.12260362936405966 c0.12761989123866213,-0.09244869139749458 0.22405177534877505,-0.23132011624351673 0.2720884759835531,-0.3904270915671025 c0.022942901795714586,-0.0785615489128926 0.03477283553413006,-0.15831342432446538 0.03477283553413006,-0.23806529973603832 C5.087845667107908,5.916113270898641 4.783135252633578,5.578854096272585 4.408520684250421,5.578854096272585 L4.408520684250421,5.578854096272585 zM1.8715376216211768,4.634925182819201 h0.3817842251943128 h0.10324305808071554 c-0.002150897043348246,-0.03372591746260539 -0.008245105332834958,-0.07141958992081132 -0.020075039071250276,-0.11070036437725762 c-0.06380994561933115,-0.2067200352707929 -0.261692473607369,-0.32019782814497094 -0.4649522442037778,-0.3824915815759013 V4.634925182819201 L1.8715376216211768,4.634925182819201 zM8.498451412177088,2.822851476328391 h3.263627780440391 l-1.325311061543072,-1.1736619276986653 c-0.03692373257747818,-0.03293236646348534 -0.08352650185002347,-0.0511840394432482 -0.1326386510064749,-0.0511840394432482 h-1.4629684723173595 L8.498451412177088,2.822851476328391 L8.498451412177088,2.822851476328391 zM7.036199905540854,1.5980055091864767 c-0.20146735639361849,0 -0.3989914015410985,0.062293753430930014 -0.5696292336467259,0.18092962779938893 l-0.7696626586781132,0.5316791694104845 c-0.09428098706676465,0.06507118192785052 -0.1387328592959614,0.19283289278619112 -0.10754485216741211,0.31107199165508936 c0.031188007128549532,0.11903264986801915 0.12977078828201047,0.20116517827695188 0.24018350317388712,0.20116517827695188 h1.416724185885372 l0.3416341470518129,-1.2248459671419134 H7.036199905540854 L7.036199905540854,1.5980055091864767 z" id="svg_40" stroke-width="1" stroke-dasharray="5,2,2,2,2,2" opacity="1" fill-opacity="1"/>
		<path fill="#eb1a1a" d="M10.740761579867634,0.560040802337354 c0.1925052853796677,0 0.37855787962929066,0.07459379391729211 0.5258943270986441,0.21068779026639367 l2.34411929440902,1.8204059919815672 l3.10481988207318,1.0954971542853327 c0.2254857067110073,0.06784861042477087 0.3817842251943128,0.29440742067356696 0.3817842251943128,0.5535018218862865 v1.4811629398577133 h0.21365577297259195 c0.08675284741504573,0 0.157015484164422,0.07776799791377242 0.157015484164422,0.17378766880730787 v0.4868435379601969 c0,0.13768109834734216 -0.10073367819680944,0.24917501372371967 -0.22476874102989114,0.24917501372371967 h-0.9492625617976876 h-0.6216092455276414 c-0.022225936114598586,0.17220056680906756 -0.06273449709765702,0.3380527256251744 -0.11937478590582747,0.4939854969522788 c-0.08926222729895221,0.24639758522679941 -0.21867453274040444,0.47017896697867545 -0.3799918109915221,0.6606312067675054 c-0.35203014942799515,0.4174078255371869 -0.8528306776875774,0.6788828797472675 -1.409554529074211,0.6788828797472675 s-1.057882862486774,-0.26147505421008177 -1.4099130119147691,-0.6788828797472675 c-0.16060031257000218,-0.19045223978883047 -0.2903711008520126,-0.41423362154070614 -0.3799918109915221,-0.6606312067675054 c-0.05664028880817046,-0.15632954682666508 -0.09714884979122897,-0.3221817056427715 -0.1190163030652696,-0.4939854969522788 h-0.6216092455276414 H6.939409538590182 h-0.6219677283681997 c-0.021867453274040497,0.17220056680906756 -0.06237601425709902,0.3380527256251744 -0.11937478590582747,0.4939854969522788 c-0.08962071013951012,0.24639758522679941 -0.21903301558096286,0.47017896697867545 -0.3799918109915221,0.6606312067675054 c-0.35203014942799515,0.4174078255371869 -0.8528306776875774,0.6788828797472675 -1.409554529074211,0.6788828797472675 c-0.5563653685460779,0 -1.057524379646217,-0.26147505421008177 -1.409554529074211,-0.6788828797472675 c-0.16095879541056027,-0.19045223978883047 -0.2907295836925705,-0.41423362154070614 -0.3799918109915221,-0.6606312067675054 c-0.05699877164872852,-0.15632954682666508 -0.09750733263178703,-0.3221817056427715 -0.11937478590582747,-0.4939854969522788 h-0.6216092455276414 h-1.2729725668215985 c-0.09141312434230019,0 -0.16561907233781453,-0.08213252840893334 -0.16561907233781453,-0.18331028079674933 v-1.0288388703592426 c0,-0.2519524422206402 0.18461866288739057,-0.4558950489945125 0.41225526664174594,-0.4558950489945125 h0.3136724854882855 v-2.0346647617440015 c0,-0.3166268486489303 0.23193839784105208,-0.5729438213647312 0.5180077046063666,-0.5729438213647312 h1.6690961056382325 l2.5420018223970584,-1.6355086091865787 c0.13658196225261318,-0.10395518088473654 0.298616206184848,-0.15950375082314538 0.4645937613632204,-0.15950375082314538 H10.740761579867634 M8.255400046278739,3.021239226108423 h3.843294533622741 c0.02581076452017892,0 0.048753666315893535,-0.018251672979762924 0.05735725448928655,-0.045232406949847266 c0.008603588173392959,-0.02658395847052428 0.001075448521674122,-0.05713567193664914 -0.019358073390134255,-0.07459379391729211 l-1.5877205008315576,-1.4069659214399821 c-0.06918718822770174,-0.061500202431809856 -0.1559400356427478,-0.0948293443948552 -0.24484378010114144,-0.0948293443948552 h-1.5956071233238331 L8.255400046278739,3.021239226108423 M5.829546664222488,3.021239226108423 h1.5479289055296146 l0.45383927614647845,-1.6220182422015368 h-0.7954734231982906 c-0.23516474340607443,0 -0.46531072704433646,0.07340346741861174 -0.6646271863946062,0.21108456576595375 l-0.769304175837553,0.5320759449100442 c-0.1623927267727923,0.11228746637549782 -0.23803260613053892,0.3305139911335332 -0.1853356285685065,0.5344565979074041 S5.638116827364499,3.021239226108423 5.829546664222488,3.021239226108423 M8.186571340891604,4.0639652389522665 h0.9195084860313711 v-0.28448803318456567 h-0.9195084860313711 V4.0639652389522665 M1.6919377185015974,4.833312932599234 h0.5613841283138906 h0.2659942676940662 c0,0 0.048753666315893535,-0.1733908933077475 -0.013263865100647487,-0.37296896958645986 c-0.06775325686546976,-0.2190200757571549 -0.26886213041852974,-0.4709725179777954 -0.8141145309073075,-0.5618341073770485 V4.833312932599234 M13.763130408612469,7.2806242138856945 c0.17314721198953323,0 0.3348229730812101,-0.05753244743620933 0.46961252113103186,-0.15553599582754488 c0.15988334688888606,-0.11585844587153858 0.28248447835973595,-0.28924933917928586 0.3441435269357188,-0.4939854969522788 c0.028678627244643293,-0.09443256889529512 0.044810355069755184,-0.1956103212831114 0.044810355069755184,-0.300755828666528 c0,-0.5245372104184028 -0.384293605078219,-0.9502773214463495 -0.8585664031365041,-0.9502773214463495 s-0.8585664031365041,0.42534333552838793 -0.8585664031365041,0.9502773214463495 c0,0.10514550738341685 0.016131727825111845,0.20632325977123284 0.044093389388639,0.300755828666528 c0.06201753141654097,0.20473615777299295 0.18461866288739057,0.37812705108073996 0.344502009776277,0.4939854969522788 C13.428665918371811,7.223091766449485 13.589624713782364,7.2806242138856945 13.763130408612469,7.2806242138856945 M4.40887916709098,7.2806242138856945 c0.17350569483009146,0 0.3348229730812101,-0.05753244743620933 0.46961252113103186,-0.15553599582754488 c0.15988334688888606,-0.11585844587153858 0.2828429612002941,-0.28924933917928586 0.3441435269357188,-0.4939854969522788 c0.028678627244643293,-0.09443256889529512 0.04445187222919709,-0.1956103212831114 0.04445187222919709,-0.300755828666528 c0,-0.5245372104184028 -0.384293605078219,-0.9502773214463495 -0.8585664031365041,-0.9502773214463495 c-0.4739143152177292,0 -0.8585664031365041,0.42534333552838793 -0.8585664031365041,0.9502773214463495 c0,0.10514550738341685 0.016131727825111845,0.20632325977123284 0.04445187222919709,0.300755828666528 c0.06165904857598305,0.20473615777299295 0.18426018004683256,0.37812705108073996 0.3441435269357188,0.4939854969522788 C4.074414676850332,7.223091766449485 4.235373472260886,7.2806242138856945 4.40887916709098,7.2806242138856945 M10.740761579867634,0.1632653027772904 h-4.3810187944598 c-0.23444777772495842,0 -0.46100893295763934,0.07618089591553213 -0.6556651153806546,0.22060717775539512 l-2.4473623524897357,1.5748019577538876 h-1.572664221528119 c-0.48323486907223756,0 -0.8764905451644068,0.435262723017389 -0.8764905451644068,0.9697193209247936 v1.6394763641821783 c-0.4040101613089118,0.025393631971844077 -0.7259277521300302,0.39756905055918357 -0.7259277521300302,0.851480222055895 v1.0288388703592426 c0,0.32019782814497094 0.23516474340607443,0.5800857803568117 0.5241019128958546,0.5800857803568117 h1.2729725668215985 h0.33231359319730364 c0.021508970433482405,0.08332285490761344 0.04696125211310336,0.16545538331654652 0.07635684503886256,0.2456040342276792 c0.10503547228350592,0.290042890178406 0.256673713839557,0.5538985973858478 0.45025444774089796,0.7832348361315636 c0.43089637435076433,0.5114436189329207 1.0403172032994308,0.8046607131078074 1.6712470026815822,0.8046607131078074 c0.6309297993821502,0 1.239992145490259,-0.29321709417488684 1.6716054855221398,-0.8046607131078074 c0.19358073390134176,-0.22933623874571693 0.344860492616835,-0.4927951704535978 0.45025444774089796,-0.783631611631125 c0.02939559292575936,-0.08014865091113281 0.05448939176482217,-0.1618844038205058 0.07599836219830435,-0.24520725872811924 H6.939409538590182 h4.293548981363638 h0.33231359319730364 c0.021508970433482405,0.08292607940805344 0.04696125211310336,0.16505860781698647 0.07599836219830435,0.24520725872811924 c0.10575243796462176,0.2904396656779665 0.25739067952067296,0.5538985973858478 0.45025444774089796,0.783631611631125 c0.4312548571913218,0.5114436189329207 1.0406756861399886,0.8046607131078074 1.6719639683626957,0.8046607131078074 c0.630571316541593,0 1.2396336626497004,-0.29321709417488684 1.6712470026815822,-0.8046607131078074 c0.19358073390134176,-0.22893946324615683 0.3452189754573928,-0.4927951704535978 0.4506129305814563,-0.7840283871306849 c0.029037110085201306,-0.07975187541157294 0.05448939176482217,-0.1618844038205058 0.07599836219830435,-0.24481048322855903 h0.3326720760378619 h0.9492625617976876 c0.3215591079805626,0 0.5832515815879302,-0.28964611467884627 0.5832515815879302,-0.6459505132837834 v-0.4868435379601969 c0,-0.25869762571316124 -0.15665700132386348,-0.4781144769698765 -0.37031277429645604,-0.5479469648924459 v-1.107400419272135 c0,-0.43684982501563 -0.26563578485350775,-0.821722059588891 -0.6463445615261456,-0.935993403462189 l-3.038142073729385,-1.07208739981129 l-2.288195971281966,-1.7771574625295203 C11.273825563777438,0.26682370816247086 11.010699158807835,0.1632653027772904 10.740761579867634,0.1632653027772904 L10.740761579867634,0.1632653027772904 zM8.973082693075936,1.795996483466952 h1.3314052698325591 c0.007528139651718863,0 0.014697796462879659,0.0027774284969204473 0.02043352191180829,0.007538734491641222 l0.9263196600019745,0.8209285085897708 h-2.5093798839062766 L8.973082693075936,1.795996483466952 L8.973082693075936,1.795996483466952 zM5.829546664222488,2.6244637265483597 c-0.031546489969107576,0 -0.059866634373192805,-0.023806529973603854 -0.06847022254658575,-0.05753244743620933 c-0.008603588173392959,-0.0333291419630454 0.003943311246138446,-0.06983248792257123 0.03082952428799151,-0.08848093640189414 l0.769304175837553,-0.5320759449100442 c0.1426761705421001,-0.09840032389089566 0.3068613115176825,-0.15077468983282433 0.4749897637394036,-0.15077468983282433 h0.3090122085610308 l-0.2315799150004942,0.8284672430814115 H5.829546664222488 L5.829546664222488,2.6244637265483597 zM13.763130408612469,6.883848714325631 c-0.09714884979122897,0 -0.1917883196985513,-0.03134526446524503 -0.273522407345785,-0.09046481389969442 c-0.0939225042262067,-0.06824538592433098 -0.1652605894972567,-0.17061346481082726 -0.2011088735530605,-0.28885256367972684 c-0.0168486935062279,-0.05634212093752913 -0.025452281679620867,-0.11585844587153858 -0.025452281679620867,-0.17418444430686789 c0,-0.305120359161689 0.22441025818933338,-0.5535018218862865 0.5000835625784658,-0.5535018218862865 s0.5000835625784658,0.24838146272459988 0.5000835625784658,0.5535018218862865 c0,0.05832599843532933 -0.008603588173392959,0.11704877237021878 -0.026169247360736936,0.17418444430686789 c-0.035848284055804064,0.1182390988688989 -0.10682788648629599,0.22060717775539512 -0.20075039071250236,0.2884557881801662 C13.954560245470459,6.852900225359946 13.860637741244252,6.883848714325631 13.763130408612469,6.883848714325631 L13.763130408612469,6.883848714325631 zM4.40887916709098,6.883848714325631 c-0.09714884979122897,0 -0.1914298368579936,-0.03134526446524503 -0.2731639245052266,-0.09046481389969442 c-0.0939225042262067,-0.06824538592433098 -0.1652605894972567,-0.17061346481082726 -0.20075039071250236,-0.2884557881801662 c-0.01720717634678593,-0.05713567193664914 -0.02581076452017892,-0.11625522137109862 -0.02581076452017892,-0.17458121980642796 c0,-0.305120359161689 0.22405177534877505,-0.5535018218862865 0.5000835625784658,-0.5535018218862865 s0.5000835625784658,0.24838146272459988 0.5000835625784658,0.5535018218862865 c0,0.05872277393488942 -0.008603588173392959,0.11784232336933878 -0.026169247360736936,0.1749779953059877 c-0.035489801215246114,0.11744554786977866 -0.10646940364573786,0.2198136267562751 -0.20075039071250236,0.28766223718104617 C4.600667486789531,6.8525034498603885 4.506028016882203,6.883848714325631 4.40887916709098,6.883848714325631 L4.40887916709098,6.883848714325631 z" id="svg_41" stroke-width="1" stroke-dasharray="5,2,2,2,2,2" opacity="1" fill-opacity="1"/>
	</g>
</g></g></svg>